<svg width="416" height="288" viewBox="0 0 208 144" fill="none" xmlns="http://www.w3.org/2000/svg">
<g style="mix-blend-mode:multiply">
<g style="mix-blend-mode:multiply">
<path d="M66 72C66 85.2548 55.2548 96 42 96C28.7452 96 18 85.2548 18 72C18 58.7452 28.7452 48 42 48C55.2548 48 66 58.7452 66 72Z" fill="white"/>
</g>
<g style="mix-blend-mode:multiply">
<path d="M66 72C66 85.2548 55.2548 96 42 96C28.7452 96 18 85.2548 18 72C18 58.7452 28.7452 48 42 48C55.2548 48 66 58.7452 66 72Z" fill="white"/>
</g>
<g style="mix-blend-mode:multiply">
<path d="M66 72C66 85.2548 55.2548 96 42 96C28.7452 96 18 85.2548 18 72C18 58.7452 28.7452 48 42 48C55.2548 48 66 58.7452 66 72Z" fill="white"/>
</g>
<g style="mix-blend-mode:multiply">
<path d="M66 72C66 85.2548 55.2548 96 42 96C28.7452 96 18 85.2548 18 72C18 58.7452 28.7452 48 42 48C55.2548 48 66 58.7452 66 72Z" stroke="#6CA3EF" stroke-width="2"/>
</g>
</g>
<path d="M28 80.4961L37.546 70.9502" stroke="#6CA3EF" stroke-width="2"/>
<path d="M36.4072 70.6592L43.078 77.33" stroke="#6CA3EF" stroke-width="2"/>
<path d="M42.1426 76.839L51.6885 67.293" stroke="#6CA3EF" stroke-width="2"/>
<path d="M52 66V72" stroke="#6CA3EF" stroke-width="2"/>
<path d="M52 73C52.5523 73 53 72.5523 53 72C53 71.4477 52.5523 71 52 71C51.4477 71 51 71.4477 51 72C51 72.5523 51.4477 73 52 73Z" fill="#6CA3EF"/>
<path d="M53 67H47" stroke="#6CA3EF" stroke-width="2"/>
<path d="M46 67C46 67.5523 46.4477 68 47 68C47.5523 68 48 67.5523 48 67C48 66.4477 47.5523 66 47 66C46.4477 66 46 66.4477 46 67Z" fill="#6CA3EF"/>
<path d="M76.5 42V102" stroke="#204475"/>
<path d="M90 53.0004V88.0004H94.55V53.0004H90ZM108.557 88.0004H121.107C123.34 88.0004 125.223 87.7171 126.757 87.1504C128.29 86.5504 129.523 85.7837 130.457 84.8504C131.39 83.9171 132.057 82.8671 132.457 81.7004C132.89 80.5004 133.107 79.3004 133.107 78.1004C133.107 76.2004 132.69 74.6837 131.857 73.5504C131.057 72.4171 130.09 71.5504 128.957 70.9504C127.823 70.3504 126.657 69.9504 125.457 69.7504C124.257 69.5504 123.29 69.4337 122.557 69.4004V69.2004C123.723 69.2004 124.823 68.9837 125.857 68.5504C126.89 68.0837 127.79 67.5004 128.557 66.8004C129.357 66.0671 129.99 65.2337 130.457 64.3004C130.923 63.3337 131.157 62.3171 131.157 61.2504C131.157 60.3171 130.957 59.3671 130.557 58.4004C130.157 57.4337 129.54 56.5504 128.707 55.7504C127.907 54.9504 126.857 54.3004 125.557 53.8004C124.29 53.2671 122.79 53.0004 121.057 53.0004H108.557V88.0004ZM113.107 85.8004V70.5004H118.607C120.24 70.5004 121.657 70.7171 122.857 71.1504C124.057 71.5837 125.04 72.1671 125.807 72.9004C126.607 73.6337 127.19 74.4837 127.557 75.4504C127.957 76.4171 128.157 77.4337 128.157 78.5004C128.157 79.6671 127.94 80.7004 127.507 81.6004C127.107 82.5004 126.557 83.2671 125.857 83.9004C125.157 84.5337 124.323 85.0171 123.357 85.3504C122.423 85.6504 121.423 85.8004 120.357 85.8004H113.107ZM113.107 68.3004V55.2004H119.207C120.507 55.2004 121.607 55.3837 122.507 55.7504C123.44 56.1171 124.19 56.6004 124.757 57.2004C125.357 57.8004 125.79 58.4837 126.057 59.2504C126.323 60.0171 126.457 60.7837 126.457 61.5504C126.457 62.5171 126.257 63.4171 125.857 64.2504C125.49 65.0837 124.957 65.8004 124.257 66.4004C123.59 67.0004 122.807 67.4671 121.907 67.8004C121.04 68.1337 120.107 68.3004 119.107 68.3004H113.107ZM150.963 72.7504V76.5004H138.613V72.7504H150.963ZM189.423 81.5504C186.023 84.7504 181.989 86.3504 177.323 86.3504C174.723 86.3504 172.423 85.9004 170.423 85.0004C168.423 84.1004 166.756 82.9004 165.423 81.4004C164.089 79.9004 163.073 78.1671 162.373 76.2004C161.706 74.2337 161.373 72.1837 161.373 70.0504C161.373 67.7837 161.723 65.7171 162.423 63.8504C163.156 61.9504 164.173 60.3171 165.473 58.9504C166.773 57.5837 168.306 56.5171 170.073 55.7504C171.873 54.9837 173.823 54.6004 175.923 54.6004C177.356 54.6004 178.656 54.7671 179.823 55.1004C181.023 55.4337 182.073 55.8671 182.973 56.4004C183.906 56.9337 184.656 57.5504 185.223 58.2504C185.823 58.9171 186.239 59.6004 186.473 60.3004H190.173C189.673 59.1671 189.023 58.1171 188.223 57.1504C187.456 56.1837 186.489 55.3504 185.323 54.6504C184.156 53.9504 182.789 53.4004 181.223 53.0004C179.656 52.6004 177.873 52.4004 175.873 52.4004C172.973 52.4004 170.323 52.8171 167.923 53.6504C165.556 54.4837 163.523 55.6837 161.823 57.2504C160.123 58.7837 158.806 60.6504 157.873 62.8504C156.939 65.0171 156.473 67.4504 156.473 70.1504C156.473 72.4837 156.839 74.7671 157.573 77.0004C158.339 79.2004 159.506 81.1671 161.073 82.9004C162.639 84.6004 164.639 85.9837 167.073 87.0504C169.506 88.0837 172.406 88.6004 175.773 88.6004C177.906 88.6004 179.806 88.4004 181.473 88.0004C183.173 87.6004 184.639 87.1171 185.873 86.5504C187.139 85.9504 188.189 85.3171 189.023 84.6504C189.856 83.9837 190.489 83.4004 190.923 82.9004L189.423 81.5504Z" fill="#204475"/>
<g style="mix-blend-mode:multiply">
<g style="mix-blend-mode:multiply">
<path d="M208 0H0V144H208V0Z" fill="white"/>
</g>
</g>
</svg>
